<svg id="arrow-down" xmlns="http://www.w3.org/2000/svg" viewBox="0 0 48 48"><defs><style>.cls-1{fill:none;}.cls-2{fill:#010101;}</style></defs><path class="cls-1" d="M0,0H48V48H0Z"/><g id="pdf"><path id="pdf--icon-path" class="cls-2" d="M21.33,4a4.46,4.46,0,0,0-4.44,4.44,26.07,26.07,0,0,0,3.46,10.34,87.92,87.92,0,0,1-5,12.92,42.32,42.32,0,0,0-10,4.59l-.09.11A4.47,4.47,0,0,0,8.44,44a4.42,4.42,0,0,0,3.17-1.29l.09-.07A58.42,58.42,0,0,0,17,34a92.64,92.64,0,0,1,12-4.07,18.15,18.15,0,0,0,10.57,3.89,4.45,4.45,0,0,0,0-8.89,35.54,35.54,0,0,0-9.89,2,33.08,33.08,0,0,1-6.45-8.39A38.17,38.17,0,0,0,25.78,8.44,4.46,4.46,0,0,0,21.33,4Zm0,2.67A1.75,1.75,0,0,1,23.11,8.4v0a28.52,28.52,0,0,1-1.54,6.44,21.17,21.17,0,0,1-2-6.44,1.74,1.74,0,0,1,1.73-1.77Zm.77,15.21a36.15,36.15,0,0,0,4.61,5.86c-2.64.72-5.21,1.64-7.75,2.61C20.18,27.58,21.17,24.7,22.1,21.88Zm17.46,5.68a1.78,1.78,0,0,1,0,3.55,16.47,16.47,0,0,1-7.13-2.17A32.12,32.12,0,0,1,39.56,27.56ZM13,35.51a43.87,43.87,0,0,1-3.36,5.37,1.68,1.68,0,0,1-1.23.45A1.75,1.75,0,0,1,6.67,39.6v0a1.87,1.87,0,0,1,.47-1.24A30,30,0,0,1,13,35.51Z"/></g></svg>