<?xml version="1.0" encoding="UTF-8"?>
<svg xmlns="http://www.w3.org/2000/svg" id="arrow-down" viewBox="0 0 48 48">
  <defs>
    <style>.cls-1{fill:#c39d41;}</style>
  </defs>
  <g id="Raggruppa_447" data-name="Raggruppa 447">
    <g id="noun_Wireless_1844259" data-name="noun Wireless 1844259">
      <g id="Raggruppa_331" data-name="Raggruppa 331">
        <path id="Tracciato_906" data-name="Tracciato 906" class="cls-1" d="M14.09,21.82a14,14,0,0,1,19.82,0,.76.76,0,0,0,1.08,0,.77.77,0,0,0,0-1.09,15.54,15.54,0,0,0-22,0h0a.77.77,0,0,0,0,1.09.76.76,0,0,0,1.08,0Z"></path>
        <path id="Tracciato_907" data-name="Tracciato 907" class="cls-1" d="M19.74,30.51a.79.79,0,0,0,0,1.09.77.77,0,0,0,1.09,0,4.48,4.48,0,0,1,6.34,0,.77.77,0,0,0,1.09-1.09h0a6,6,0,0,0-8.51,0Z"></path>
        <path id="Tracciato_908" data-name="Tracciato 908" class="cls-1" d="M31.62,26.71a.77.77,0,0,0,0-1.08h0a10.79,10.79,0,0,0-15.24,0,.77.77,0,0,0,0,1.09.76.76,0,0,0,1.08,0h0a9.25,9.25,0,0,1,13.08,0,.76.76,0,0,0,1.08,0Z"></path>
      </g>
    </g>
  </g>
</svg>
