<svg xmlns="http://www.w3.org/2000/svg" width="368.001" height="30" viewBox="0 0 368.001 30"><g transform="translate(-3080 14826)"><g transform="translate(3080 -14826)"><g transform="translate(1.026)"><g transform="translate(113.974)"><g transform="translate(0 0)"><path d="M44.6,170.787a1.875,1.875,0,0,0-1.875,1.875v8.748a1.875,1.875,0,0,0,3.749,0v-8.748A1.875,1.875,0,0,0,44.6,170.787Z" transform="translate(-42.727 -160.782)" fill="#c39d42"/><path d="M407.268,170.787a1.875,1.875,0,0,0-1.875,1.875v8.748a1.875,1.875,0,1,0,3.749,0v-8.748A1.875,1.875,0,0,0,407.268,170.787Z" transform="translate(-384.148 -160.782)" fill="#c39d42"/><path d="M142.432,170.787H128.685a.625.625,0,0,0-.625.625v10a3.124,3.124,0,0,0,2.5,3.062v4.437a1.875,1.875,0,1,0,3.749,0v-4.374h2.5v4.374a1.875,1.875,0,0,0,3.749,0v-4.437a3.124,3.124,0,0,0,2.5-3.062v-10A.625.625,0,0,0,142.432,170.787Z" transform="translate(-123.061 -160.782)" fill="#c39d42"/><path d="M140.1,2.6l1.523-1.522a.625.625,0,1,0-.868-.9l-.015.015-1.775,1.775a8.552,8.552,0,0,0-6.815,0L130.376.19a.625.625,0,0,0-.884.884L131.014,2.6a6.6,6.6,0,0,0-2.956,5.534.625.625,0,0,0,.625.625H142.43a.625.625,0,0,0,.625-.625A6.6,6.6,0,0,0,140.1,2.6Z" transform="translate(-123.06 0)" fill="#c39d42"/></g><g transform="translate(8.748 5.006)"><ellipse cx="0.625" cy="0.625" rx="0.625" ry="0.625" fill="#c39d42"/><ellipse cx="0.625" cy="0.625" rx="0.625" ry="0.625" transform="translate(6.249)" fill="#c39d42"/></g></g><path d="M9.726,1.248h1.556L6.825-11.133H4.791L.352,1.248H1.873l1.38-4.015H8.311ZM5.764-10.036l2.1,6H3.695ZM14.519,1.248V-2.236a5.694,5.694,0,0,1,.442-2.476,2.248,2.248,0,0,1,2.052-1.273,1.629,1.629,0,0,1,1.716,1.822V1.248H20.09V-4.164a2.626,2.626,0,0,0-2.847-2.954,2.9,2.9,0,0,0-2.794,2.069V-6.906H13.157V1.248ZM28.986-11.84v6.526a2.982,2.982,0,0,0-2.865-1.8c-2.388,0-3.838,1.875-3.838,4.3s1.4,4.28,3.785,4.28a3.183,3.183,0,0,0,2.971-1.8V1.248h1.309V-11.84ZM26.351-6c1.556,0,2.706,1.22,2.706,3.184S27.837.346,26.351.346c-1.539,0-2.671-1.2-2.671-3.166C23.68-4.8,24.777-6,26.351-6Zm12.4,1.733a3.58,3.58,0,0,0,.071-.761A1.892,1.892,0,0,0,36.8-7.118,2.456,2.456,0,0,0,34.557-5.4v-1.5H33.284V1.248h1.362V-3.209c0-1.344.354-2.777,1.7-2.777.778,0,1.167.478,1.167,1.45a3.708,3.708,0,0,1-.071.725Zm5.43-2.847a4.021,4.021,0,0,0-4.156,4.3,4.007,4.007,0,0,0,4.156,4.28,4.011,4.011,0,0,0,4.174-4.28A4.025,4.025,0,0,0,44.179-7.118Zm0,7.464C42.6.346,41.42-.715,41.42-2.82,41.42-4.96,42.675-6,44.179-6c1.539,0,2.777,1.043,2.777,3.184C46.955-.7,45.753.346,44.179.346Zm6.456-9.568H52v-1.91H50.634ZM52,1.248V-6.906H50.634V1.248Zm9.02-13.088v6.526a2.982,2.982,0,0,0-2.865-1.8c-2.388,0-3.838,1.875-3.838,4.3s1.4,4.28,3.785,4.28a3.183,3.183,0,0,0,2.971-1.8V1.248h1.309V-11.84ZM58.381-6c1.556,0,2.706,1.22,2.706,3.184S59.866.346,58.381.346c-1.539,0-2.671-1.2-2.671-3.166C55.71-4.8,56.807-6,58.381-6Z" transform="translate(149.265 19.755)" fill="#d3d3d3"/></g><g transform="translate(0.338)"><path d="M5.619,1.248,8.944-9.435,12.252,1.248h1.362l3.909-12.38H16.089l-3.13,10.2-3.148-10.2h-1.7L4.929-.928l-3.042-10.2H.384L4.24,1.248ZM19.4-9.222h1.362v-1.91H19.4Zm1.362,10.47V-6.906H19.4V1.248Zm4.3,0V-2.236A5.694,5.694,0,0,1,25.5-4.712,2.248,2.248,0,0,1,27.55-5.986a1.629,1.629,0,0,1,1.716,1.822V1.248h1.362V-4.164A2.626,2.626,0,0,0,27.78-7.118a2.9,2.9,0,0,0-2.794,2.069V-6.906H23.695V1.248ZM39.524-11.84v6.526a2.982,2.982,0,0,0-2.865-1.8c-2.388,0-3.838,1.875-3.838,4.3s1.4,4.28,3.785,4.28a3.183,3.183,0,0,0,2.971-1.8V1.248h1.309V-11.84ZM36.889-6c1.556,0,2.706,1.22,2.706,3.184S38.374.346,36.889.346c-1.539,0-2.671-1.2-2.671-3.166C34.218-4.8,35.314-6,36.889-6ZM47.323-7.118a4.021,4.021,0,0,0-4.156,4.3,4.007,4.007,0,0,0,4.156,4.28A4.011,4.011,0,0,0,51.5-2.82,4.025,4.025,0,0,0,47.323-7.118Zm0,7.464c-1.574,0-2.759-1.061-2.759-3.166C44.564-4.96,45.82-6,47.323-6,48.862-6,50.1-4.96,50.1-2.82,50.1-.7,48.9.346,47.323.346ZM59.757-6.906H58.289L56.237-.255l-2.016-6.65H52.735l2.671,8.153h1.539l2.069-6.738L61.1,1.248h1.45l2.635-8.153H63.842L61.826-.255Zm13.654,1.4A3.673,3.673,0,0,0,70-7.118c-1.963,0-3.29,1.043-3.29,2.441s.867,2,2.37,2.264l1.875.3c.9.141,1.291.478,1.291,1.132,0,.831-.9,1.362-2.193,1.362A2.9,2.9,0,0,1,67.2-1.264l-.973.92a4.223,4.223,0,0,0,3.838,1.8c2.1,0,3.52-1.026,3.52-2.582,0-1.468-1.061-1.981-2.476-2.211l-1.769-.283C68.352-3.775,68-4.146,68-4.8s.619-1.256,2.034-1.256a2.672,2.672,0,0,1,2.423,1.309Z" transform="translate(294.075 19.755)" fill="#d3d3d3"/><g transform="translate(258.662 3.316)"><g transform="translate(0 0)"><path d="M14.141,2.109l-2.177,8.7a14.2,14.2,0,0,0-9.323-.621C3.276,7.4,4.82,2.109,4.82,2.109,7.125.221,11.611.9,14.141,2.109Z" transform="translate(0.278 -0.934)" fill="#c39d42"/><path d="M14.393,3.145a13.647,13.647,0,0,0,9.617.909l-2.488,8.389c-2.557,1.353-7.445,1.252-9.322-.622Z" transform="translate(1.286 -0.701)" fill="#c39d42"/><path d="M11.494,11.631l-2.174,8.7c-2.739-1.26-6.231-2.1-9.32-.622,0,0,1.434-5.6,2.173-8.388C4.566,9.836,9.334,10.275,11.494,11.631Z" transform="translate(0 0.063)" fill="#c39d42"/><path d="M11.977,12.641c2.373,1.678,6.407,1.95,9.388.8l-2.484,8.392c-2.405,1.635-7.111,1.384-9.324-.311Z" transform="translate(1.007 0.3)" fill="#c39d42"/></g></g></g><path d="M1.328-9.27H2.69v-1.91H1.328ZM2.69,1.2V-6.953H1.328V1.2ZM5.1-4.972c0,4.192,2.688,6.385,5.854,6.385S16.8-.745,16.8-4.972c0-4.192-2.688-6.42-5.854-6.42S5.1-9.2,5.1-4.972Zm10.258,0c0,3.272-1.716,5.147-4.4,5.147s-4.4-1.822-4.4-5.147c0-3.254,1.716-5.182,4.4-5.182S15.353-8.279,15.353-4.972ZM28.742-8.934c-.69-1.433-2.458-2.458-4.864-2.458-3.2,0-4.811,1.7-4.811,3.484,0,2.069,1.574,2.865,3.343,3.148l2.706.407c1.4.195,2.618.778,2.618,2.14,0,1.733-1.91,2.405-3.8,2.405a4.486,4.486,0,0,1-4.245-2.511l-1.132.92c.619,1.185,2.158,2.812,5.341,2.812,3.484,0,5.288-1.68,5.288-3.749,0-2.441-2.087-3.042-4.086-3.325L22.817-6c-1.415-.212-2.3-.8-2.3-2,0-1.592,1.8-2.211,3.36-2.211a4.08,4.08,0,0,1,3.873,2.14Z" transform="translate(38.829 20.802)" fill="#d3d3d3"/><path d="M54.178,141.041c-4.464-.026-8.156-9.138-8.156-13.779,0-7.581,5.687-9.24,7.878-9.24a9.065,9.065,0,0,1,2.973.731,6.645,6.645,0,0,0,1.7.487,5.282,5.282,0,0,0,1.218-.395,9.759,9.759,0,0,1,3.67-.887h.009a7.523,7.523,0,0,1,6.3,3.179l.459.69-.661.5a5.56,5.56,0,0,0-2.666,4.585,5.175,5.175,0,0,0,2.888,4.784c.414.249.842.505.842,1.067,0,.366-2.924,8.234-7.171,8.234a5.767,5.767,0,0,1-2.422-.588,4.911,4.911,0,0,0-2.156-.519,5.545,5.545,0,0,0-1.707.462,8.36,8.36,0,0,1-2.96.691Z" transform="translate(-46.022 -111.048)" fill="#c39d42"/><path d="M260.789,0c.111,3.988-2.741,6.755-5.59,6.581C254.73,3.4,258.047,0,260.789,0Z" transform="translate(-242.903)" fill="#c39d42"/></g></g></svg>