<?xml version="1.0" encoding="UTF-8"?>
<!-- Generator: Adobe Illustrator 24.2.3, SVG Export Plug-In . SVG Version: 6.00 Build 0)  -->
<svg xmlns="http://www.w3.org/2000/svg" xmlns:xlink="http://www.w3.org/1999/xlink" version="1.1" id="Livello_1" x="0px" y="0px" viewBox="0 0 380 380" style="enable-background:new 0 0 380 380;" xml:space="preserve">
<style type="text/css">
	.st0{clip-path:url(#SVGID_2_);}
	.st1{enable-background:new    ;}
	.st2{fill:#C39D42;}
</style>
<g>
	<defs>
		<rect id="SVGID_1_" y="0" width="380" height="380"></rect>
	</defs>
	<clipPath id="SVGID_2_">
		<use xlink:href="#SVGID_1_" style="overflow:visible;"></use>
	</clipPath>
	<g id="Fuoripista-Bike-Tagline-Circle" class="st0">
		<g id="Raggruppa_95" transform="translate(-193.798 -245.746)">
			<g class="st1">
				<path class="st2" d="M243,351l-21.8-17.5l9.2-11.4c2.7-3.3,6.8-5.3,10.6-2.3c2.3,1.8,3,4.8,1.4,7.9c3.6-3.7,7.6-2.7,9.6-1.1      c4.2,3.4,3.7,8.5,0.5,12.5L243,351z M238.5,330.2c1.5-1.9,1.7-3.9-0.2-5.4c-1.6-1.3-3.6-1.2-5.5,1.2l-4.7,5.8l5.5,4.5      L238.5,330.2z M236.8,338.7l6.5,5.2l5.3-6.6c2.4-3,1.4-5.2-0.1-6.4c-2-1.6-4.4-1.3-6.5,1.3L236.8,338.7z"></path>
			</g>
			<g class="st1">
				<path class="st2" d="M243.9,307.1l3.9-3.7l3.4,3.7l-3.9,3.7L243.9,307.1z M262.9,327.6l-12.8-13.7l3.9-3.7l12.8,13.7      L262.9,327.6z"></path>
			</g>
			<g class="st1">
				<path class="st2" d="M270.8,320.3l-18-23.4l4.3-3.3l11.1,14.4l1.2-10.3l4.5-3.5l0.5,0.7l-1.5,9.8l12.6,3.3l0.5,0.6l-4.6,3.5      l-9.7-2.6l-0.4,2.7l3.7,4.8L270.8,320.3z"></path>
			</g>
			<g class="st1">
				<path class="st2" d="M303,293.9c0.5,2.5-1,6.3-5.2,8.5c-5.5,2.9-10.6,1.2-13.4-4c-2.5-4.8-1.4-10.5,4-13.4      c5.6-3,10.5-0.4,13.2,4.9l-0.2,0.6l-11.8,6.2c1.2,2.4,3.8,3.1,6.2,1.8c1.7-0.9,2.6-2.3,2.5-3.9L303,293.9z M288.2,294l7.4-3.9      c-0.8-1.5-3-2.8-5.4-1.6C287.9,289.8,287.4,292.1,288.2,294z"></path>
			</g>
			<g class="st1">
				<path class="st2" d="M313.6,278.8c0.7-0.3,1.5,0.1,1.8,0.8c0.3,0.7-0.1,1.5-0.8,1.8c-0.7,0.2-1.5-0.1-1.7-0.8      C312.5,279.8,312.9,279,313.6,278.8z"></path>
			</g>
			<g class="st1">
				<path class="st2" d="M328.7,260.6l3-0.7l0.9,4.2l-3,0.7L328.7,260.6z M334.7,287.9l-3.9-18l3-0.7l3.9,18L334.7,287.9z"></path>
			</g>
			<g class="st1">
				<path class="st2" d="M344.7,285.7l-2.1-18.3l2.9-0.3l0.5,4.2c0.6-2.5,2.3-5,5.7-5.4c3.6-0.4,6.6,1.2,7.1,5.9l1.4,12.1l-3.1,0.3      l-1.4-12.1c-0.3-2.6-1.9-3.9-4.3-3.6c-1.8,0.2-3.4,1.2-4.3,3.4c-0.5,1.5-0.6,3.3-0.4,5.7l0.9,7.8L344.7,285.7z"></path>
			</g>
			<g class="st1">
				<path class="st2" d="M372.1,258.2l-0.1,7.3l5.3,0.1l0,2.4l-5.3-0.1l-0.1,11.5c0,1.8,0.9,2.5,2.2,2.5c1.6,0,2.3-0.8,2.9-1.6      l0.9,0.6c-0.5,1.6-2.3,3.2-4.8,3.2c-2.8,0-4.3-1.7-4.3-4.5l0.1-11.8l-3,0l0-2.4l3,0l0.1-7.3L372.1,258.2z"></path>
			</g>
			<g class="st1">
				<path class="st2" d="M399.8,282.1c-1.3,2.1-4.1,4.3-8.8,3.7c-5.3-0.7-8.5-5.2-7.7-10.7c0.8-5.5,4.9-9.3,10.3-8.5      c5.2,0.7,8,5.2,7.1,11l-0.5,0.4l-13.9-1.9c-0.6,3.5,1.6,6.8,5.3,7.3c3.1,0.4,4.8-1,5.8-2.6L399.8,282.1z M386.7,273.9l11.1,1.6      c0.2-3.7-1.7-6-4.7-6.4C390.9,268.8,387.9,270,386.7,273.9z"></path>
			</g>
			<g class="st1">
				<path class="st2" d="M419,279.9c0.3-0.5,0.5-1.1,0.6-1.5c0.6-2.1,0.1-3.4-1.6-3.9c-2.9-0.9-4.6,2-5.5,4.9l-2.9,9.6l-2.9-0.9      l5.2-17.6l2.8,0.8l-1,3.2c1.1-1.5,3.3-3,6-2.3c2.3,0.7,4,2.6,3,5.8c-0.2,0.6-0.4,1.1-0.6,1.6L419,279.9z"></path>
			</g>
			<g class="st1">
				<path class="st2" d="M441.8,287.4c0.7-1.6,0.7-3.5-2.2-4.9c-3-1.4-4.9-0.4-5.7,1.4l-2.6-1.2c0.9-2.4,4.1-4.9,9.4-2.4      c3.6,1.7,5.8,4.4,4,8.3l-4.1,8.7c-0.5,1,0,1.7,0.8,2.1c0.4,0.2,0.9,0.3,1.6,0.3l-1,1.9c-0.9-0.1-1.8-0.4-2.4-0.6      c-1.9-0.9-2.5-2.4-2-3.9c-1.9,1-4.3,1-6.8-0.1c-2.9-1.4-4.7-4.4-3.2-7.4c1-2.1,3.2-3.5,6.8-2.5l6.8,1.9L441.8,287.4z M440.2,291      l-5.7-1.5c-1.8-0.5-3.3-0.2-4.1,1.3c-0.8,1.7,0,3.5,2.1,4.4c2.8,1.3,5.5,0.5,6.7-2L440.2,291z"></path>
			</g>
			<g class="st1">
				<path class="st2" d="M463.9,309c-2.8,2.6-6.4,3.4-10.7,0.6c-4.9-3.2-5.2-8.8-2.5-12.8c3.1-4.8,8.6-6.4,13.3-3.3      c4.3,2.8,4.9,6.8,3.5,10l-2.7-0.4l-0.2-0.4c1.2-2.6,0.5-5.3-2-7c-2.6-1.7-6.5-1.2-9.2,2.9c-2.2,3.3-1.7,7,1.4,9      c2.5,1.7,5.3,1.4,7.3-0.7L463.9,309z"></path>
			</g>
			<g class="st1">
				<path class="st2" d="M486.4,301.7l-4.9,5.5l3.9,3.5l-1.6,1.8l-3.9-3.5l-7.6,8.6c-1.2,1.3-1,2.5,0,3.4c1.2,1.1,2.3,0.9,3.2,0.7      l0.2,1.1c-1.5,0.9-3.8,0.9-5.7-0.8c-2.1-1.9-2.2-4.1-0.3-6.2l7.8-8.8l-2.2-2l1.6-1.8l2.2,2l4.9-5.5L486.4,301.7z"></path>
			</g>
			<g class="st1">
				<path class="st2" d="M477.7,329l13.2-12.9l2.1,2.2l-13.2,12.9L477.7,329z M497.7,309.4l2.1,2.2l-3.1,3l-2.1-2.2L497.7,309.4z"></path>
			</g>
			<g class="st1">
				<path class="st2" d="M491,339.1l15.2-5.6l2,2.5l-18.5,6.4l-2.3-2.9l10.1-16.7l2.1,2.6L491,339.1z"></path>
			</g>
			<g class="st1">
				<path class="st2" d="M508.3,363c-2.4,0.3-6-0.5-8.4-4.6c-2.7-4.6-1.2-9.9,3.5-12.7c4.8-2.8,10.3-2,13.1,2.7      c2.7,4.5,0.9,9.5-4.2,12.4l-0.6-0.2l-7.1-12.1c-3.1,1.7-4.3,5.5-2.4,8.7c1.6,2.7,3.7,3.1,5.6,2.9L508.3,363z M506.6,347.6      l5.7,9.7c3.1-2.1,3.6-5,2.1-7.6C513.2,347.6,510.4,346.1,506.6,347.6z"></path>
			</g>
			<g class="st1">
				<path class="st2" d="M528.2,386.9c1.3-1.4,1.8-3.7,1-6.1c-1.1-3-2.8-3.9-4.2-3.4c-1.4,0.5-1.9,1.5-1.5,3.7l0.7,4      c0.6,3.2,0.3,5.8-2.8,6.9c-3.3,1.2-6.6-1.1-8.1-5.6c-1.5-4.2-0.7-7.5,1-9.5l2.7,1.4c-1.9,1.9-2.4,4.4-1.4,7.3      c1,2.7,2.8,4.3,4.5,3.6c1.4-0.5,1.8-1.6,1.4-3.6l-0.8-4.2c-0.6-3.4,0.1-5.7,3-6.7c3-1,6.2,1,7.7,5.2c1.2,3.4,0.9,6.3-0.9,8.5      L528.2,386.9z"></path>
			</g>
			<g class="st1">
				<path class="st2" d="M543.8,398.9l-7.2,1.6l1.1,5.1l-2.3,0.5l-1.1-5.1l-11.2,2.4c-1.7,0.4-2.3,1.5-2,2.8      c0.3,1.6,1.3,2.1,2.2,2.5l-0.4,1c-1.7-0.2-3.6-1.5-4.2-4c-0.6-2.8,0.6-4.6,3.4-5.2l11.5-2.5l-0.6-2.9l2.3-0.5l0.6,2.9l7.2-1.6      L543.8,398.9z"></path>
			</g>
			<g class="st1">
				<path class="st2" d="M534.5,425.4c1.7-0.2,3.4-1.1,3.1-4.4c-0.3-3.3-2.1-4.5-4.1-4.2l-0.3-2.9c2.5-0.4,6.3,1.1,6.8,6.9      c0.3,3.9-0.9,7.2-5.2,7.6l-9.6,0.9c-1.1,0.1-1.5,0.8-1.4,1.7c0,0.4,0.2,0.9,0.5,1.5l-2.2,0.1c-0.4-0.8-0.6-1.7-0.7-2.4      c-0.2-2.1,0.8-3.4,2.4-3.7c-1.8-1.1-3-3.2-3.3-6c-0.3-3.2,1.5-6.2,4.8-6.5c2.3-0.2,4.6,1,5.6,4.7l1.8,6.9L534.5,425.4z       M530.6,425.8l-1.5-5.7c-0.5-1.8-1.5-3-3.2-2.8c-1.9,0.2-3,1.8-2.8,4c0.3,3.1,2.4,5,5.1,4.8L530.6,425.8z"></path>
			</g>
			<g class="st1">
				<path class="st2" d="M547.4,443.4l-7.3-0.3l-0.2,5.3l-2.4-0.1l0.2-5.3l-11.4-0.4c-1.8-0.1-2.5,0.9-2.6,2.2      c-0.1,1.6,0.7,2.3,1.5,3l-0.7,0.9c-1.6-0.6-3.1-2.4-3-4.9c0.1-2.8,1.8-4.3,4.6-4.2l11.8,0.4l0.1-3l2.4,0.1l-0.1,2.9l7.3,0.3      L547.4,443.4z"></path>
			</g>
			<g class="st1">
				<path class="st2" d="M520.9,454.1l18.2,2.5l-0.4,3l-18.2-2.5L520.9,454.1z M548.6,457.9l-0.4,3l-4.3-0.6l0.4-3L548.6,457.9z"></path>
			</g>
			<g class="st1">
				<path class="st2" d="M524.4,483c-5.6-1.4-8.5-6-7.1-11.4c1.3-5.4,6-8.2,11.6-6.8c5.6,1.4,8.5,6,7.2,11.4      C534.7,481.6,530,484.3,524.4,483z M525.1,479.9c4.7,1.1,7.6-1,8.5-4.4c0.8-3.3-0.8-6.6-5.5-7.7c-4.6-1.1-7.6,0.9-8.4,4.4      C518.8,475.6,520.5,478.8,525.1,479.9z"></path>
			</g>
			<g class="st1">
				<path class="st2" d="M513.1,487.4l17,7L529,497l-3.9-1.6c1.9,1.7,3.2,4.4,1.9,7.6c-1.4,3.4-4.2,5.2-8.6,3.4l-11.3-4.6l1.2-2.8      l11.3,4.6c2.4,1,4.4,0.2,5.3-2c0.7-1.7,0.6-3.6-0.9-5.4c-1-1.2-2.6-2.1-4.8-3l-7.3-3L513.1,487.4z"></path>
			</g>
			<g class="st1">
				<path class="st2" d="M508.8,524.8c1.5,0.9,3.4,1.2,5.1-1.6c1.8-2.8,1-4.8-0.7-5.9l1.5-2.5c2.3,1.2,4.3,4.6,1.2,9.6      c-2.1,3.3-5.1,5.3-8.8,2.9l-8.2-5.1c-0.9-0.6-1.7-0.2-2.2,0.5c-0.2,0.4-0.4,0.9-0.5,1.5l-1.8-1.2c0.2-0.9,0.6-1.8,0.9-2.3      c1.1-1.8,2.7-2.2,4.1-1.5c-0.8-2-0.5-4.4,1-6.7c1.7-2.7,4.9-4.1,7.7-2.3c2,1.2,3.1,3.6,1.6,7.1l-2.7,6.5L508.8,524.8z       M505.4,522.7l2.2-5.5c0.7-1.8,0.6-3.3-0.8-4.2c-1.6-1-3.5-0.4-4.7,1.5c-1.6,2.6-1.1,5.4,1.2,6.9L505.4,522.7z"></path>
			</g>
			<g class="st1">
				<path class="st2" d="M494,542.7c0.4,0.5,0.8,0.9,1.1,1.2c1.7,1.4,3.1,1.4,4.2,0.1c2-2.3,0-5-2.3-7l-7.7-6.5l2-2.3l14.1,11.9      l-1.9,2.2l-2.6-2.2c0.9,1.6,1.5,4.3-0.3,6.4c-1.5,1.8-3.9,2.6-6.5,0.4c-0.5-0.4-0.9-0.8-1.2-1.2L494,542.7z"></path>
			</g>
			<g class="st1">
				<path class="st2" d="M469,544.8c-1.5-3.4-1.3-5.7,0.9-7.7c1.9-1.7,4.5-2,6.4,0l-1.3,2l-0.4,0.2c-0.9-1.1-2.1-1.2-3-0.3      c-1.2,1.1-0.9,2.5,0.1,4.7l1.4,3.2l18.6,8.8l-2.4,2.3l-14.5-7l6.5,14.5l-2.4,2.2L469,544.8z"></path>
			</g>
			<g class="st1">
				<path class="st2" d="M454.9,562.4l15,25.4l-2.6,1.6l-7.5-12.7c0.3,2.3-0.8,5.2-3.6,6.9c-4.7,2.8-9.5,0.7-12.3-4      c-2.8-4.7-2.1-10,2.6-12.7c2.8-1.6,5.5-1.5,7.8,0.2l-1.7-3.2L454.9,562.4z M446.6,578c2.3,3.8,5.9,4.9,8.9,3.1      c2.9-1.7,3.9-5.5,1.6-9.3c-2.3-3.8-6-4.8-8.9-3C445,570.6,444.3,574.2,446.6,578z"></path>
			</g>
			<g class="st1">
				<path class="st2" d="M433,574.4l7.4,16.9l-2.8,1.2l-7.4-16.8L433,574.4z M444.2,600l-2.8,1.2l-1.7-3.9l2.8-1.2L444.2,600z"></path>
			</g>
			<g class="st1">
				<path class="st2" d="M423.7,578.5l9.1,28.1l-2.9,0.9l-6.1-18.7l-5.8,10.9l-3.3,1.1l-0.1-0.4l5.1-9.1l-11.5-7.2l-0.1-0.4l3.1-1      l9.9,6.3l1.8-3.1l-2.1-6.3L423.7,578.5z"></path>
			</g>
			<g class="st1">
				<path class="st2" d="M387.9,591.8c0.6-2.4,2.6-5.4,7.3-6.1c5.2-0.9,9.7,2.4,10.6,7.9c0.9,5.5-1.9,10.3-7.2,11.2      c-5.2,0.9-9.2-2.6-10-8.4l0.4-0.5l13.8-2.3c-0.5-3.5-3.5-6-7.2-5.4c-3.1,0.5-4.3,2.4-4.7,4.2L387.9,591.8z M402.9,595.7      l-11.1,1.8c0.9,3.6,3.4,5.2,6.4,4.7C400.5,601.9,402.9,599.8,402.9,595.7z"></path>
			</g>
		</g>
	</g>
</g>
</svg>
