<?xml version="1.0" encoding="UTF-8"?>
<svg xmlns="http://www.w3.org/2000/svg" viewBox="0 0 48 48">
  <g fill="#c39d41">
    <path d="m24.06 26.51-6-6a3.8 3.8 0 0 1 0-5.32 3.71 3.71 0 0 1 2.68-1.19 3.7 3.7 0 0 1 2.62 1.11l.67.69.72-.73a3.73 3.73 0 0 1 5.26.05 3.8 3.8 0 0 1 0 5.33zm-5.61-11 .36.35a2.78 2.78 0 0 0 0 3.91l5.25 5.31 5.26-5.3a2.8 2.8 0 0 0 0-3.91 2.71 2.71 0 0 0 -3.83 0l-1.43 1.45-1.39-1.42a2.75 2.75 0 0 0 -1.91-.9 2.79 2.79 0 0 0 -1.92.78z"></path>
    <path d="m26.25 33.97-2.35-4.36-2.33 4.35-2.41-4.42-1.22 1.89h-2.73v-1.01h2.18l1.84-2.86 2.33 4.28 2.34-4.36 2.35 4.35 2.29-4.3 1.77 2.89h2.48v1.01h-3.04l-1.15-1.86z"></path>
  </g>
</svg>
