<?xml version="1.0" encoding="UTF-8"?>
<svg xmlns="http://www.w3.org/2000/svg" id="arrow-down" viewBox="0 0 48 48">
  <defs>
    <style>.cls-1{fill:#c39d41;}</style>
  </defs>
  <g id="noun_Ear_659545" data-name="noun Ear 659545">
    <path id="Tracciato_946" data-name="Tracciato 946" class="cls-1" d="M22.89,32.9a4,4,0,0,1-4-4,.54.54,0,0,1,.57-.5.55.55,0,0,1,.51.5,2.92,2.92,0,0,0,2.91,2.94h0a3.49,3.49,0,0,0,1.61-.46c1.06-.66,1.29-1.77,1.56-3A7,7,0,0,1,27.4,25,6.06,6.06,0,0,0,29,21a5.22,5.22,0,0,0-10.44,0,4.37,4.37,0,0,0,.46,2,.54.54,0,0,1-.14.75.55.55,0,0,1-.74-.13s0,0,0,0A5.77,5.77,0,0,1,17.5,21a6.3,6.3,0,1,1,12.59,0,7.28,7.28,0,0,1-1.88,4.77,6.13,6.13,0,0,0-1.12,2.82c-.28,1.39-.59,2.81-2,3.71A4.25,4.25,0,0,1,22.89,32.9Zm-.11-3.45a2,2,0,0,1-2-2h0a2,2,0,0,1,.41-1.21l.24-.34a4.77,4.77,0,0,0,.62-1c.1-.44-.11-.77-.52-1.3l-.13-.18a3.7,3.7,0,0,1-.79-2.26A3.21,3.21,0,0,1,27,21v.16a.54.54,0,0,1-1.07.07V21.2a2.14,2.14,0,1,0-4.28,0h0a2.69,2.69,0,0,0,.59,1.63l.12.15a2.59,2.59,0,0,1,.69,2.17,4.31,4.31,0,0,1-.79,1.38c-.08.11-.17.23-.23.33l0,0a.84.84,0,0,0-.19.57.94.94,0,0,0,.93.94,1,1,0,0,0,.78-.4.54.54,0,0,1,.74-.11.52.52,0,0,1,.14.71,2,2,0,0,1-1.63.88Z"></path>
  </g>
  <rect class="cls-1" x="10.81" y="23.43" width="26.38" height="1.13" transform="translate(-9.94 24) rotate(-45)"></rect>
</svg>
